
<?xml version="1.0" standalone="no"?>
<svg xmlns="http://www.w3.org/2000/svg" viewBox="0 0 1440 320">
  <path 
  fill="#0099ff" 
  fill-opacity="1" d="M0,128L26.7,128C53.3,128,107,128,160,122.7C213.3,117,267,107,320,112C373.3,117,427,139,480,144C533.3,149,587,139,640,149.3C693.3,160,747,192,800,213.3C853.3,235,907,245,960,234.7C1013.3,224,1067,192,1120,181.3C1173.3,171,1227,181,1280,186.7C1333.3,192,1387,192,1413,192L1440,192L1440,0L1413.3,0C1386.7,0,1333,0,1280,0C1226.7,0,1173,0,1120,0C1066.7,0,1013,0,960,0C906.7,0,853,0,800,0C746.7,0,693,0,640,0C586.7,0,533,0,480,0C426.7,0,373,0,320,0C266.7,0,213,0,160,0C106.7,0,53,0,27,0L0,0Z">
  </path>
</svg>